{"title":"Desperado - 1995 DVDrip nutEdave.avi","uid":4868883,"size":1130236928,"categoryP":"video","categoryS":"movies","magnet":"?xt=urn:btih:c37440bfa4e9ce99171858f8ef51eed84e5d4b37&amp;dn=Desperado+-+1995+DVDrip+nutEdave.avi&amp;tr=udp%3A%2F%2Ftracker.openbittorrent.com%3A80&amp;tr=udp%3A%2F%2Fopen.demonii.com%3A1337&amp;tr=udp%3A%2F%2Ftracker.coppersurfer.tk%3A6969&amp;tr=udp%3A%2F%2Fexodus.desync.com%3A6969","seeders":0,"leechers":1,"uploader":"nutEdave","files":-1,"time":1240682955,"description":"`                                                       \n                                 #  ###   #             \n                        ##  # # ### #   ###  ## # # ### \n                        # # # #  #  ##  # # # # # # ##  \n                        # # ###  ## #   ### ###  #  ### \n                                    ###    `                                                                                  Desperado is a 1995 action thriller film written and directed by Robert Rodriguez. The film stars Salma Hayek and Antonio Banderas as the former mariachi who seeks revenge on the drug lord who killed his lover.\n\nDesperado is the sequel to Rodriguez's independent film El Mariachi (1992) and the second entry in the &quot;Mexico Trilogy&quot;.\n                                                                                   Screen Shots `                                                                                  &lt;a href=&quot;\nhttp://i728.photobucket.com/albums/ww286/nutEdave/Desperado/1.jpg&quot; rel=&quot;nofollow&quot; target=&quot;_NEW&quot;&gt;\nhttp://i728.photobucket.com/albums/ww286/nutEdave/Desperado/1.jpg&lt;/a&gt; `                                                                                 &lt;a href=&quot; http://i728.photobucket.com/albums/ww286/nutEdave/Desperado/2.jpg&quot; rel=&quot;nofollow&quot; target=&quot;_NEW&quot;&gt; http://i728.photobucket.com/albums/ww286/nutEdave/Desperado/2.jpg&lt;/a&gt; `                                                                                 &lt;a href=&quot; http://i728.photobucket.com/albums/ww286/nutEdave/Desperado/3.jpg&quot; rel=&quot;nofollow&quot; target=&quot;_NEW&quot;&gt; http://i728.photobucket.com/albums/ww286/nutEdave/Desperado/3.jpg&lt;/a&gt; `                                                                                 &lt;a href=&quot; http://i728.photobucket.com/albums/ww286/nutEdave/Desperado/4.jpg&quot; rel=&quot;nofollow&quot; target=&quot;_NEW&quot;&gt; http://i728.photobucket.com/albums/ww286/nutEdave/Desperado/4.jpg&lt;/a&gt; `                                                                                 &lt;a href=&quot; http://i728.photobucket.com/albums/ww286/nutEdave/Desperado/5.jpg&quot; rel=&quot;nofollow&quot; target=&quot;_NEW&quot;&gt; http://i728.photobucket.com/albums/ww286/nutEdave/Desperado/5.jpg&lt;/a&gt; `                                                                                 Cast                                                                              Actor                              Role \nAntonio Banderas ................  El Mariachi \nSalma Hayek .....................  Carolina \nJoaquim de Almeida ..............  Bucho \nCheech Marin ....................  Short Bartender \nSteve Buscemi ...................  Buscemi \nCarlos GÃƒÂ³mez ....................  Right Hand (as Carlos Gomez) \nQuentin Tarantino ...............  Pick-up Guy \nTito Larriva ....................  Tavo \nAngel Aviles ....................  Zamira \nDanny Trejo .....................  Navajas \nAbraham Verduzco ................  NiÃƒÂ±o \nCarlos Gallardo .................  Campa \nAlbert Michel Jr. ...............  Quino \nDavid Alvarado ..................  Buddy\nAngela Lanza ....................  Tourist Girl \n`                                                                              General\nComplete name                    : Desperado - 1995 \nFormat                           : AVI\nFormat/Info                      : Audio Video Interleave\nFile size                        : 1.05 GiB\nDuration                         : 1h 40mn\nOverall bit rate                 : 1 503 Kbps\n\nVideo\nFormat                           : MPEG-4 Visual\nFormat profile                   : Simple@L3\nFormat settings, BVOP            : Yes\nFormat settings, QPel            : No\nFormat settings, GMC             : No warppoints\nFormat settings, Matrix          : Default\nMuxing mode                      : Packed bitstream\nCodec ID                         : XVID\nCodec ID/Hint                    : XviD\nDuration                         : 1h 40mn\nBit rate                         : 1 299 Kbps\nWidth                            : 1 024 pixels\nHeight                           : 582 pixels\nDisplay aspect ratio             : 16/9\nFrame rate                       : 29.970 fps\nResolution                       : 24 bits\nColorimetry                      : 4:2:0\nScan type                        : Progressive\nBits/(Pixel*Frame)               : 0.073\nStream size                      : 932 MiB (86%)\nWriting library                  : XviD 1.1.0 Beta2 (UTC 2005-04-04)\n\nAudio\nFormat                           : MPEG Audio\nFormat version                   : Version 1\nFormat profile                   : Layer 3\nCodec ID                         : 55\nCodec ID/Hint                    : MP3\nDuration                         : 1h 40mn\nBit rate mode                    : Constant\nBit rate                         : 192 Kbps\nChannel(s)                       : 2 channels\nSampling rate                    : 44.1 KHz\nResolution                       : 16 bits\nVideo delay                      : 26ms\nStream size                      : 138 MiB (13%)\nAlignment                        : Split accross interleaves\nInterleave, duration             : 33 ms (1.00 video frame)\nTitle                            : Audio Stream\nWriting library                  : LAME3.92\n                                                                                   More nutEdave torrents  &lt;a href=&quot;\nhttp://thepiratebay.se/user/nutEdave&quot; rel=&quot;nofollow&quot; target=&quot;_NEW&quot;&gt;\nhttp://thepiratebay.se/user/nutEdave&lt;/a&gt;\n\n\nRSS Feed  &lt;a href=&quot;\nhttp://rss.thepiratebay.se/user/94be0146a68e5d6fe94dbb6506d52443&quot; rel=&quot;nofollow&quot; target=&quot;_NEW&quot;&gt;\nhttp://rss.thepiratebay.se/user/94be0146a68e5d6fe94dbb6506d52443&lt;/a&gt;                                                                                                      Please seed after downloading `                                                                                            :::===  :::===== :::===== :::====       :::= === :::====  :::====\n        :::     :::      :::      :::  ===      :::===== :::  === :::====\n         =====  ======   ======   ===  ===      ======== ===  ===   ===  \n            === ===      ===      ===  ===      === ==== ===  ===   ===  \n        ======  ======== ======== =======       ===  ===  ======    ===  \n                                                                         \n                  :::=====  :::====  :::===== :::===== :::==== \n                  :::       :::  === :::      :::      :::  ===\n                  === ===== =======  ======   ======   ===  ===\n                  ===   === === ===  ===      ===      ===  ===\n                   =======  ===  === ======== ======== =======","torrent":{"xt":"urn:btih:c37440bfa4e9ce99171858f8ef51eed84e5d4b37","amp;dn":"Desperado+-+1995+DVDrip+nutEdave.avi","amp;tr":["udp%3A%2F%2Ftracker.openbittorrent.com%3A80","udp%3A%2F%2Fopen.demonii.com%3A1337","udp%3A%2F%2Ftracker.coppersurfer.tk%3A6969","udp%3A%2F%2Fexodus.desync.com%3A6969"],"infoHash":"c37440bfa4e9ce99171858f8ef51eed84e5d4b37","infoHashBuffer":{"type":"Buffer","data":[195,116,64,191,164,233,206,153,23,24,88,248,239,81,238,216,78,93,75,55]},"announce":[],"urlList":[]}}